<?xml version="1.0" encoding="UTF-8"?>
<svg xmlns="http://www.w3.org/2000/svg" xmlns:xlink="http://www.w3.org/1999/xlink" width="96px" height="96px" viewBox="0 0 96 96" version="1.1">
<g id="surface1">
<path style=" stroke:none;fill-rule:nonzero;fill:rgb(0%,0%,0%);fill-opacity:1;" d="M 0 48.011719 L 0 96.027344 L 96.027344 96.027344 L 96.027344 0 L 0 0 Z M 53.140625 27.132812 C 53.304688 27.183594 53.324219 27.304688 53.324219 28.050781 L 53.324219 28.910156 L 55.0625 28.910156 L 55.0625 29.769531 C 55.0625 30.777344 55.0625 30.777344 56.164062 30.738281 L 56.847656 30.707031 L 56.878906 31.648438 L 56.910156 32.585938 L 65.890625 32.585938 L 65.898438 31.789062 C 65.910156 31.363281 65.910156 30.941406 65.898438 30.871094 C 65.890625 30.789062 66.09375 30.75 66.625 30.738281 C 67.035156 30.726562 67.441406 30.71875 67.523438 30.707031 C 67.648438 30.699219 67.6875 30.511719 67.707031 29.796875 L 67.738281 28.910156 L 69.453125 28.910156 L 69.515625 28.574219 C 69.546875 28.398438 69.578125 27.992188 69.597656 27.683594 L 69.617188 27.121094 L 71.253906 27.121094 L 71.253906 45.101562 L 70.40625 45.152344 L 69.546875 45.203125 L 69.558594 46.847656 C 69.566406 47.746094 69.546875 48.5625 69.507812 48.65625 C 69.453125 48.800781 69.300781 48.828125 68.585938 48.828125 L 67.730469 48.828125 L 67.730469 50.566406 L 68.585938 50.566406 C 69.558594 50.566406 69.566406 50.554688 69.496094 49.832031 C 69.464844 49.574219 69.464844 49.238281 69.507812 49.09375 L 69.566406 48.828125 L 71.335938 48.808594 L 73.089844 48.777344 L 73.121094 47.878906 L 73.152344 46.992188 L 74.910156 47.011719 L 76.667969 47.042969 L 76.699219 48.800781 L 76.71875 50.554688 L 75.828125 50.585938 L 74.929688 50.617188 L 74.878906 51.484375 L 74.828125 52.355469 L 73.992188 52.386719 L 73.144531 52.414062 L 73.144531 53.121094 C 73.144531 54.164062 73.164062 54.140625 72.164062 54.140625 L 71.3125 54.140625 L 71.285156 55.03125 L 71.253906 55.929688 L 70.355469 55.960938 C 69.730469 55.980469 69.464844 56.023438 69.476562 56.113281 C 69.484375 56.183594 69.484375 56.574219 69.476562 56.972656 L 69.464844 57.71875 L 67.730469 57.71875 L 67.730469 59.445312 L 66.839844 59.472656 L 65.941406 59.503906 L 65.910156 60.394531 L 65.878906 61.28125 L 65.042969 61.3125 L 64.203125 61.34375 L 64.152344 62.210938 L 64.101562 63.082031 L 63.183594 63.132812 L 62.261719 63.183594 L 62.234375 64.019531 L 62.203125 64.867188 L 60.476562 64.867188 L 60.476562 66.695312 L 59.585938 66.726562 L 58.6875 66.757812 L 58.65625 67.597656 L 58.625 68.433594 L 56.953125 68.496094 L 56.921875 69.382812 L 56.890625 70.273438 L 56 70.304688 L 55.113281 70.332031 L 55.082031 71.171875 L 55.050781 72.019531 L 53.601562 72.03125 C 52.804688 72.039062 52.015625 72.050781 51.84375 72.058594 L 51.535156 72.070312 L 51.507812 72.96875 L 51.476562 73.859375 L 49.71875 73.835938 L 47.960938 73.808594 L 47.929688 72.050781 L 47.910156 70.28125 L 46.175781 70.28125 L 46.175781 69.425781 C 46.175781 68.832031 46.132812 68.554688 46.050781 68.527344 C 45.828125 68.445312 44.753906 68.421875 44.539062 68.496094 C 44.355469 68.554688 44.335938 68.648438 44.335938 69.425781 L 44.335938 70.28125 L 42.609375 70.28125 L 42.578125 71.121094 L 42.546875 71.96875 L 40.8125 72.070312 L 40.78125 72.96875 L 40.75 73.859375 L 38.074219 73.835938 L 35.398438 73.808594 L 35.367188 72.050781 L 35.34375 70.28125 L 33.515625 70.28125 L 33.488281 69.382812 L 33.457031 68.496094 L 32.710938 68.464844 C 32.238281 68.445312 31.902344 68.484375 31.8125 68.554688 C 31.707031 68.636719 31.667969 68.914062 31.667969 69.476562 L 31.667969 70.28125 L 29.929688 70.28125 L 29.929688 72.019531 L 29.074219 72.019531 C 28.070312 72.019531 28.09375 72 28.09375 73.101562 L 28.09375 73.859375 L 26.335938 73.835938 L 24.566406 73.808594 L 24.566406 66.757812 L 25.4375 66.707031 L 26.304688 66.65625 L 26.335938 64.898438 L 26.355469 63.140625 L 25.46875 63.109375 L 24.566406 63.082031 L 24.539062 62.179688 L 24.507812 61.292969 L 20.941406 61.292969 L 20.941406 59.453125 L 11.953125 59.453125 L 11.953125 57.71875 L 10.113281 57.71875 L 10.113281 55.980469 L 13.679688 55.980469 L 13.710938 56.820312 L 13.738281 57.667969 L 18.265625 57.695312 L 22.78125 57.71875 L 22.78125 59.453125 L 26.355469 59.453125 L 26.355469 61.292969 L 29.929688 61.292969 L 29.929688 59.453125 L 30.789062 59.453125 C 31.738281 59.453125 31.800781 59.414062 31.699219 58.800781 C 31.667969 58.605469 31.679688 58.28125 31.707031 58.085938 L 31.78125 57.71875 L 33.507812 57.71875 L 33.507812 55.980469 L 34.425781 55.980469 C 34.9375 55.980469 35.34375 55.949219 35.34375 55.898438 C 35.355469 55.859375 35.367188 55.460938 35.375 55.011719 L 35.398438 54.191406 L 36.296875 54.164062 L 37.183594 54.132812 L 37.183594 52.40625 L 38.953125 52.386719 L 40.707031 52.355469 L 40.761719 51.484375 L 40.8125 50.617188 L 42.546875 50.515625 L 42.578125 49.679688 L 42.609375 48.828125 L 44.367188 48.808594 L 46.121094 48.777344 L 46.152344 44.253906 L 46.175781 39.738281 L 47.910156 39.738281 L 47.929688 37.972656 L 47.960938 36.214844 L 48.859375 36.183594 L 49.75 36.152344 L 49.75 32.585938 L 51.484375 32.585938 L 51.484375 29.902344 C 51.484375 28.417969 51.507812 27.183594 51.535156 27.152344 C 51.617188 27.070312 52.90625 27.050781 53.140625 27.132812 "/>
<path style=" stroke:none;fill-rule:nonzero;fill:rgb(0%,0%,0%);fill-opacity:1;" d="M 58.707031 36.234375 C 58.667969 36.265625 58.636719 37.460938 58.636719 38.878906 L 58.636719 41.476562 L 58.871094 41.527344 C 58.996094 41.554688 59.402344 41.578125 59.761719 41.554688 L 60.425781 41.527344 L 60.457031 38.839844 L 60.476562 36.164062 L 59.628906 36.164062 C 59.15625 36.164062 58.738281 36.195312 58.707031 36.234375 M 64.171875 38.839844 L 64.203125 41.527344 L 65.042969 41.554688 L 65.878906 41.585938 L 65.910156 39.15625 C 65.929688 37.816406 65.929688 36.601562 65.910156 36.4375 L 65.878906 36.164062 L 64.152344 36.164062 Z M 51.484375 46.070312 L 51.484375 46.992188 L 49.75 46.992188 L 49.75 48.828125 L 47.898438 48.828125 L 47.929688 49.667969 L 47.960938 50.515625 L 48.859375 50.546875 L 49.75 50.578125 L 49.75 48.828125 L 51.484375 48.828125 L 51.484375 46.992188 L 56.898438 46.992188 L 56.898438 50.554688 L 56.011719 50.585938 L 55.113281 50.617188 L 55.113281 52.355469 L 56.847656 52.355469 L 56.878906 51.457031 L 56.910156 50.566406 L 58.636719 50.566406 L 58.636719 46.992188 L 56.898438 46.992188 L 56.898438 45.152344 L 51.484375 45.152344 Z M 65.941406 50.6875 C 65.910156 50.761719 65.878906 51.167969 65.871094 51.589844 L 65.839844 52.355469 L 65 52.386719 L 64.152344 52.414062 L 64.152344 54.140625 L 65.890625 54.140625 L 65.890625 52.527344 C 65.890625 52.488281 66.289062 52.4375 66.777344 52.40625 L 67.675781 52.355469 L 67.707031 51.457031 L 67.738281 50.566406 L 66.859375 50.566406 C 66.257812 50.566406 65.972656 50.609375 65.941406 50.6875 M 53.324219 53.273438 L 53.324219 54.140625 L 55.0625 54.140625 L 55.0625 52.40625 L 53.324219 52.40625 Z M 53.324219 53.273438 "/>
</g>
</svg>
