<?xml version="1.0" standalone="no"?>
<!DOCTYPE svg PUBLIC "-//W3C//DTD SVG 20010904//EN"
 "http://www.w3.org/TR/2001/REC-SVG-20010904/DTD/svg10.dtd">
<svg version="1.0" xmlns="http://www.w3.org/2000/svg"
 width="940.000000pt" height="940.000000pt" viewBox="0 0 940.000000 940.000000"
 preserveAspectRatio="xMidYMid meet">

<g transform="translate(0.000000,940.000000) scale(0.100000,-0.100000)"
fill="#000000" stroke="none">
<path d="M0 4700 l0 -4700 4700 0 4700 0 0 4700 0 4700 -4700 0 -4700 0 0
-4700z m5202 2044 c16 -5 18 -17 18 -90 l0 -84 85 0 85 0 0 -84 c0 -99 0 -99
108 -95 l67 3 3 -92 3 -92 439 0 440 0 1 78 c1 42 1 83 0 90 -1 8 19 12 71 13
40 1 80 2 88 3 12 1 16 19 18 89 l3 87 84 0 84 0 6 33 c3 17 6 57 8 87 l2 55
80 0 80 0 0 -880 0 -880 -83 -5 -84 -5 1 -161 c1 -88 -1 -168 -5 -177 -5 -14
-20 -17 -90 -17 l-84 0 0 -85 0 -85 84 0 c95 0 96 1 89 72 -3 25 -3 58 1 72
l6 26 173 2 172 3 3 88 3 87 172 -2 172 -3 3 -172 2 -172 -87 -3 -88 -3 -5
-85 -5 -85 -82 -3 -83 -3 0 -69 c0 -102 2 -100 -96 -100 l-83 0 -3 -87 -3 -88
-88 -3 c-61 -2 -87 -6 -86 -15 1 -7 1 -45 0 -84 l-1 -73 -85 0 -85 0 0 -85 0
-84 -87 -3 -88 -3 -3 -87 -3 -87 -82 -3 -82 -3 -5 -85 -5 -85 -90 -5 -90 -5
-3 -82 -3 -83 -84 0 -85 0 0 -90 0 -89 -87 -3 -88 -3 -3 -82 -3 -82 -82 -3
-82 -3 -3 -87 -3 -87 -87 -3 -87 -3 -3 -82 -3 -83 -142 -1 c-78 -1 -155 -2
-172 -3 l-30 -1 -3 -88 -3 -87 -172 2 -172 3 -3 172 -2 173 -85 0 -85 0 0 84
c0 58 -4 85 -12 88 -22 8 -127 10 -148 3 -18 -6 -20 -15 -20 -91 l0 -84 -85 0
-84 0 -3 -82 -3 -83 -85 -5 -85 -5 -3 -88 -3 -87 -262 2 -262 3 -3 172 -2 173
-90 0 -89 0 -3 88 -3 87 -73 3 c-46 2 -79 -2 -88 -9 -10 -8 -14 -35 -14 -90
l0 -79 -85 0 -85 0 0 -85 0 -85 -84 0 c-98 0 -96 2 -96 -106 l0 -74 -172 2
-173 3 0 345 0 345 85 5 85 5 3 172 2 172 -87 3 -88 3 -3 88 -3 87 -174 0
-175 0 0 90 0 90 -440 0 -440 0 0 85 0 85 -90 0 -90 0 0 85 0 85 175 0 174 0
3 -82 3 -83 443 -3 442 -2 0 -85 0 -85 175 0 175 0 0 -90 0 -90 175 0 175 0 0
90 0 90 84 0 c93 0 99 4 89 64 -3 19 -2 51 1 70 l7 36 84 0 85 0 0 85 0 85 90
0 c50 0 90 3 90 8 1 4 2 43 3 87 l2 80 88 3 87 3 0 84 0 85 173 2 172 3 5 85
5 85 85 5 85 5 3 82 3 83 172 2 172 3 3 443 2 442 85 0 85 0 2 173 3 172 88 3
87 3 0 174 0 175 85 0 85 0 0 263 c0 145 2 266 5 269 8 8 134 10 157 2z"/>
<path d="M5747 5853 c-4 -3 -7 -120 -7 -259 l0 -254 23 -5 c12 -3 52 -5 87 -3
l65 3 3 263 2 262 -83 0 c-46 0 -87 -3 -90 -7z"/>
<path d="M6282 5598 l3 -263 82 -3 82 -3 3 238 c2 131 2 250 0 266 l-3 27 -85
0 -84 0 2 -262z"/>
<path d="M5040 4890 l0 -90 -85 0 -85 0 0 -90 0 -90 -90 0 -91 0 3 -82 3 -83
88 -3 87 -3 0 86 0 85 85 0 85 0 0 90 0 90 265 0 265 0 0 -175 0 -174 -87 -3
-88 -3 0 -85 0 -85 85 0 85 0 3 88 3 87 84 0 85 0 0 175 0 175 -85 0 -85 0 0
90 0 90 -265 0 -265 0 0 -90z"/>
<path d="M6455 4438 c-3 -7 -6 -47 -7 -88 l-3 -75 -82 -3 -83 -3 0 -84 0 -85
85 0 85 0 0 75 c0 41 0 78 0 83 0 4 39 9 87 12 l88 5 3 88 3 87 -86 0 c-59 0
-87 -4 -90 -12z"/>
<path d="M5220 4185 l0 -85 85 0 85 0 0 85 0 85 -85 0 -85 0 0 -85z"/>
</g>
</svg>
